# AST/ASF file generated using VICON BodyLanguage
# -----------------------------------------------
:version 1.10
:name VICON
:units
  mass 1.0
  length 0.45
  angle deg
:documentation
   .ast/.asf automatically generated from VICON data using
   VICON BodyBuilder and BodyLanguage model FoxedUp or BRILLIANT.MOD
:root
   order TX TY TZ RX RY RZ
   axis XYZ
   position 0 0 0  
   orientation 0 0 0 
:bonedata
  begin
     id 1 
     name lhipjoint
     direction 0.589753 -0.68606 0.426044 
     length 2.54082 
     axis 0 0 0  XYZ
  end
  begin
     id 2 
     name lfemur
     direction 0.34202 -0.939693 0  
     length 7.04539  
     axis 0 0 20  XYZ
    dof rx ry rz
    limits (-160.0 20.0)
           (-70.0 70.0)
           (-60.0 70.0)
  end
  begin
     id 3 
     name ltibia
     direction 0.34202 -0.939693 0   
     length 7.83772   
     axis 0 0 20   XYZ
    dof rx
    limits (-10.0 170.0)
  end
  begin
     id 4 
     name lfoot
     direction 0.0596604 -0.163915 0.984669   
     length 2.39542   
     axis -90 7.62852e-016 20   XYZ
    dof rx rz
    limits (-45.0 90.0)
           (-70.0 20.0)
  end
  begin
     id 5 
     name ltoes
     direction 1.53514e-011 -4.21954e-011 1   
     length 1.2047   
     axis -90 7.62852e-016 20   XYZ
    dof rx
    limits (-90.0 20.0)
  end
  begin
     id 6 
     name rhipjoint
     direction -0.580585 -0.69168 0.429534   
     length 2.52018  
     axis 0 0 0  XYZ 
  end
  begin
     id 7 
     name rfemur
     direction -0.34202 -0.939693 0   
     length 7.0101   
     axis 0 0 -20   XYZ
    dof rx ry rz
    limits (-160.0 20.0)
           (-70.0 70.0)
           (-70.0 60.0)
  end
  begin
     id 8 
     name rtibia
     direction -0.34202 -0.939693 0   
     length 7.70628   
     axis 0 0 -20   XYZ
    dof rx
    limits (-10.0 170.0)
 end
 begin
     id 9 
     name rfoot
     direction -0.0696237 -0.19129 0.979061   
     length 2.52466  
     axis -90 -7.62852e-016 -20   XYZ
    dof rx rz
    limits (-45.0 90.0)
           (-20.0 70.0)
  end
  begin
     id 10 
     name rtoes
     direction -1.53519e-011 -4.21793e-011 1   
     length 1.266   
     axis -90 -7.62852e-016 -20   XYZ
    dof rx
    limits (-90.0 20.0)
  end
  begin
     id 11 
     name lowerback
     direction 0.00381965 0.995707 -0.0924856   
     length 2.20825   
     axis 0 0 0   XYZ
    dof rx ry rz
    limits (-20.0 45.0)
           (-30.0 30.0)
           (-30.0 30.0)
  end
  begin
     id 12 
     name upperback
     direction -0.0139043 0.999634 -0.0231929   
     length 2.21517   
     axis 0 0 0   XYZ
    dof rx ry rz
    limits (-20.0 45.0)
           (-30.0 30.0)
           (-30.0 30.0)
  end
  begin
     id 13 
     name thorax
     direction -0.0143933 0.999691 0.0202892   
     length 2.22911   
     axis 0 0 0   XYZ
    dof rx ry rz
    limits (-20.0 45.0)
           (-30.0 30.0)
           (-30.0 30.0)
  end
  begin
     id 14 
     name lowerneck
     direction -0.0251153 0.981819 0.188153   
     length 1.61782   
     axis 0 0 0   XYZ
    dof rx ry rz
    limits (-20.0 45.0)
           (-30.0 30.0)
           (-30.0 30.0)
  end
  begin
     id 15 
     name upperneck
     direction 0.0563891 0.969357 -0.239095   
     length 1.64526   
     axis 0 0 0   XYZ
    dof rx ry rz
    limits (-20.0 45.0)
           (-30.0 30.0)
           (-30.0 30.0)
  end
  begin
     id 16
     name head
     direction 0.0208328 0.99459 -0.101773  
     length 1.67436  
     axis 0 0 0   XYZ
    dof rx ry rz
    limits (-20.0 45.0)
           (-30.0 30.0)
           (-30.0 30.0)
  end
  begin
     id 17 
     name lclavicle
     direction 0.917689 0.397224 0.00772059  
     length 3.31102  
     axis 0 0 0   XYZ
    dof ry rz
    limits (-20.0 10.0)
           (0.0 20.0)
  end
  begin
     id 18 
     name lhumerus
     direction 1 -4.4896e-011 2.32308e-027   
     length 5.25537   
     axis 180 -30 -90   XYZ
    dof rx ry rz
    limits (-60.0 90.0)
           (-90.0 90.0)
           (-90.0 90.0)
  end
  begin
     id 19
     name lradius
     direction 1 -4.49005e-011 -2.04271e-027   
     length 3.38855   
     axis 180 -30 -90   XYZ
    dof rx
    limits (-10.0 170.0)
  end
  begin
     id 20
     name lwrist
     direction 1 -4.48892e-011 2.56952e-028   
     length 1.69428   
     axis -5.12785e-016 90 90   XYZ
    dof ry
    limits (-180.0 0.0)
 end
  begin
     id 21 
     name lhand
     direction 1 -4.48966e-011 5.13905e-028   
     length 0.614516   
     axis -3.27915e-016 90 90   XYZ
    dof rx rz
    limits (-90.0 90.0)
           (-45.0 45.0)
  end
  begin
     id 22 
     name lfingers
     direction 1 -4.48979e-011 1.02781e-027   
     length 0.495439   
     axis -6.5583e-016 90 90   XYZ
    dof rx
    limits (0.0 90.0)
  end
  begin
     id 23
     name lthumb
     direction 0.707107 -6.35001e-011 0.707107   
     length 0.711354   
     axis -90 45 2.85299e-015   XYZ
    dof rx rz
    limits (-45.0 45.0)
           (-45.0 45.0)
  end
  begin
     id 24 
     name rclavicle
     direction -0.938556 0.342765 -0.0403177   
     length 3.27019  
     axis 0 0 0   XYZ 
    dof ry rz
    limits (-10.0 20.0)
           (-20.0 0.0)
  end
  begin
     id 25 
     name rhumerus
     direction -1 -4.48966e-011 2.52291e-027  
     length 5.38183   
     axis 180 30 90   XYZ
    dof rx ry rz
    limits (-90.0 60.0)
           (-90.0 90.0)
           (-90.0 90.0)
  end
  begin
     id 26 
     name rradius
     direction -1 -4.4896e-011 1.5797e-027   
     length 3.16988   
     axis 180 30 90   XYZ
    dof rx
    limits (-10.0 170.0)
  end
  begin
     id 27 
     name rwrist
     direction -1 -4.48947e-011 2.56952e-028   
     length 1.58494   
     axis -5.12785e-016 -90 -90   XYZ
    dof ry
    limits (-180.0 0.0)
  end
  begin
     id 28
     name rhand
     direction -1 -4.49098e-011 5.13905e-028   
     length 0.637679   
     axis -3.27915e-016 -90 -90   XYZ
    dof rx rz
    limits (-90.0 90.0)
           (-45.0 45.0)
  end
  begin
     id 29
     name rfingers
     direction -1 -4.49026e-011 1.02781e-027   
     length 0.514113   
     axis -6.5583e-016 -90 -90   XYZ
    dof rx
    limits (0.0 90.0)
  end
  begin
     id 30
     name rthumb
     direction -0.707107 -6.3491e-011 0.707107   
     length 0.738167   
     axis -90 -45 -2.85299e-015   XYZ
    dof rx rz
    limits (-45.0 45.0)
           (-45.0 45.0)
  end
:hierarchy
  begin
    root lhipjoint rhipjoint lowerback
    lhipjoint lfemur
    lfemur ltibia
    ltibia lfoot
    lfoot ltoes
    rhipjoint rfemur
    rfemur rtibia
    rtibia rfoot
    rfoot rtoes
    lowerback upperback
    upperback thorax
    thorax lowerneck lclavicle rclavicle
    lowerneck upperneck
    upperneck head
    lclavicle lhumerus
    lhumerus lradius
    lradius lwrist
    lwrist lhand lthumb
    lhand lfingers
    rclavicle rhumerus
    rhumerus rradius
    rradius rwrist
    rwrist rhand rthumb
    rhand rfingers
  end

#!OML:ASF H:\Swim\Project 1\Capture day 1\Session 1\swimmer.ASF
:FULLY-SPECIFIED
:DEGREES
689
root 4.30199 11.8587 8.212 70.1564 -2.08933 4.90566
lowerback 6.13075 -0.942043 0.121044
upperback -2.52446 -1.36391 -1.89783
thorax -6.12255 -0.720541 -1.89189
lowerneck -29.3616 -4.78709 -5.80247
upperneck 11.5875 -5.74259 7.91009
head 8.71681 -2.08403 2.78242
rclavicle 1.21259e-014 -5.96354e-016
rhumerus -75.2299 23.9269 -91.7325
rradius 84.792
rwrist 38.1997
rhand -40.417 21.8383
rfingers 7.12502
rthumb -13.3697 -7.71271
lclavicle 1.21259e-014 -5.96354e-016
lhumerus -72.6182 -24.3971 86.8125
lradius 81.68
lwrist -49.8935
lhand -46.9851 0.481689
lfingers 7.12502
lthumb -19.693 29.5042
rfemur -19.8077 16.1096 15.1232
rtibia 36.6536
rfoot -23.5648 -17.9519
rtoes -11.439
lfemur -27.7544 -2.72328 -20.2616
ltibia 39.7781
lfoot -12.3424 5.06175
ltoes -15.0714
690
root 4.30336 11.8493 8.22416 70.4889 -2.15246 4.79616
lowerback 6.20596 -0.916422 0.111853
upperback -2.55783 -1.33223 -1.90596
thorax -6.19976 -0.70512 -1.89785
lowerneck -29.2857 -4.797 -5.80498
upperneck 11.3611 -5.7555 7.96386
head 8.62963 -2.08957 2.79878
rclavicle -1.49089e-014 -6.36111e-015
rhumerus -75.5451 23.8518 -91.7799
rradius 84.887
rwrist 38.243
rhand -40.7081 22.1965
rfingers 7.12502
rthumb -13.6503 -7.33594
lclavicle -1.49089e-014 -6.36111e-015
lhumerus -72.9407 -24.2465 86.8083
lradius 81.8175
lwrist -50.0326
lhand -47.1722 0.469995
lfingers 7.12502
lthumb -19.8728 29.474
rfemur -19.7788 15.8703 15.0587
rtibia 36.6457
rfoot -23.0567 -17.7139
rtoes -11.842
lfemur -27.6684 -2.75491 -20.216
ltibia 39.7525
lfoot -11.5326 4.76614
ltoes -14.3746
691
root 4.30538 11.8398 8.23614 70.8228 -2.21529 4.67056
lowerback 6.28123 -0.886624 0.118299
upperback -2.5934 -1.29384 -1.91765
thorax -6.27962 -0.687131 -1.91724
lowerneck -29.2066 -4.80922 -5.81437
upperneck 11.1368 -5.76967 8.0212
head 8.54337 -2.09577 2.81731
rclavicle 2.06736e-014 1.98785e-015
rhumerus -75.8677 23.767 -91.8326
rradius 84.9942
rwrist 38.3016
rhand -40.9362 22.4936
rfingers 7.12502
rthumb -13.8701 -7.02384
lclavicle 2.06736e-014 1.98785e-015
lhumerus -73.2747 -24.0887 86.8052
lradius 81.9661
lwrist -50.1622
lhand -47.3696 0.503888
lfingers 7.12502
lthumb -20.0625 29.4881
rfemur -19.7492 15.6055 15.002
rtibia 36.6465
rfoot -22.5292 -17.4271
rtoes -12.2451
lfemur -27.566 -2.78732 -20.1665
ltibia 39.7221
lfoot -10.868 4.49396
ltoes -13.5955
692
root 4.30792 11.8302 8.24777 71.1565 -2.29442 4.52299
lowerback 6.36056 -0.849342 0.121113
upperback -2.63103 -1.24611 -1.93449
thorax -6.36371 -0.664546 -1.94117
lowerneck -29.1267 -4.82003 -5.82064
upperneck 10.9164 -5.78176 8.07079
head 8.45796 -2.10178 2.833
rclavicle 1.0138e-014 -3.01159e-014
rhumerus -76.1876 23.6714 -91.887
rradius 85.1061
rwrist 38.3726
rhand -41.1317 22.7423
rfingers 7.12502
rthumb -14.0585 -6.76224
lclavicle 1.0138e-014 -3.01159e-014
lhumerus -73.614 -23.9171 86.8022
lradius 82.1199
lwrist -50.2783
lhand -47.5178 0.529223
lfingers 7.12502
lthumb -20.205 29.4984
rfemur -19.7212 15.3053 14.9368
rtibia 36.6566
rfoot -21.9674 -17.0831
rtoes -12.8426
lfemur -27.4444 -2.81756 -20.1273
ltibia 39.6861
lfoot -10.3288 4.28331
ltoes -12.7521
693
root 4.31092 11.8206 8.25882 71.4873 -2.39029 4.3466
lowerback 6.44216 -0.803329 0.119868
upperback -2.66724 -1.18728 -1.95571
thorax -6.44725 -0.636424 -1.9689
lowerneck -29.0441 -4.8306 -5.82772
upperneck 10.6968 -5.793 8.11914
head 8.37257 -2.10772 2.84856
rclavicle -3.8763e-015 2.11209e-014
rhumerus -76.4885 23.5612 -91.9408
rradius 85.2023
rwrist 38.451
rhand -41.2762 22.9795
rfingers 7.12502
rthumb -14.1978 -6.51526
lclavicle -3.8763e-015 2.11209e-014
lhumerus -73.9477 -23.7278 86.79
lradius 82.2738
lwrist -50.3746
lhand -47.6518 0.530176
lfingers 7.12502
lthumb -20.3338 29.4857
rfemur -19.6904 15.0096 14.8638
rtibia 36.6757
rfoot -21.4293 -16.6808
rtoes -13.3439
lfemur -27.3026 -2.81797 -20.0995
ltibia 39.6439
lfoot -9.8997 4.14125
ltoes -11.9618
694
root 4.31436 11.8111 8.26969 71.8224 -2.5046 4.14208
lowerback 6.51631 -0.748778 0.109809
upperback -2.70177 -1.1179 -1.97997
thorax -6.52423 -0.602778 -1.99641
lowerneck -28.9626 -4.83973 -5.8335
upperneck 10.4781 -5.80188 8.16323
head 8.28749 -2.113 2.86281
rclavicle -2.01766e-014 -1.78409e-014
rhumerus -76.7607 23.4374 -91.9914
rradius 85.2705
rwrist 38.5146
rhand -41.4457 23.2425
rfingers 7.12502
rthumb -14.3611 -6.24077
lclavicle -2.01766e-014 -1.78409e-014
lhumerus -74.255 -23.5158 86.7671
lradius 82.4085
lwrist -50.4467
lhand -47.7567 0.466421
lfingers 7.12502
lthumb -20.4346 29.4112
rfemur -19.6705 14.7214 14.7781
rtibia 36.7045
rfoot -20.8968 -16.2622
rtoes -13.8574
lfemur -27.1484 -2.80253 -20.0838
ltibia 39.5953
lfoot -9.57328 4.09074
ltoes -11.3149
695
root 4.31804 11.8017 8.28051 72.1597 -2.63837 3.91581
lowerback 6.582 -0.687497 0.0841876
upperback -2.73231 -1.04101 -2.00789
thorax -6.59163 -0.564807 -2.02019
lowerneck -28.8813 -4.8496 -5.84291
upperneck 10.2583 -5.8111 8.21231
head 8.20258 -2.11816 2.87934
rclavicle 6.36111e-015 1.48095e-014
rhumerus -76.9968 23.3015 -92.0351
rradius 85.3036
rwrist 38.5637
rhand -41.6371 23.5513
rfingers 7.12502
rthumb -14.5455 -5.91872
lclavicle 6.36111e-015 1.48095e-014
lhumerus -74.537 -23.2834 86.7315
lradius 82.5206
lwrist -50.4999
lhand -47.8449 0.351186
lfingers 7.12502
lthumb -20.5193 29.2868
rfemur -19.6556 14.4501 14.6771
rtibia 36.7395
rfoot -20.3941 -15.8393
rtoes -14.303
lfemur -26.9826 -2.78472 -20.0822
ltibia 39.5419
lfoot -9.3101 4.1372
ltoes -10.8532
696
root 4.32206 11.7927 8.29132 72.5078 -2.76169 3.67231
lowerback 6.62069 -0.623972 0.0720668
upperback -2.75443 -0.959181 -2.0319
thorax -6.63456 -0.524753 -2.04844
lowerneck -28.8064 -4.86016 -5.85519
upperneck 10.0357 -5.81954 8.26146
head 8.11793 -2.12306 2.89644
rclavicle 2.38542e-015 1.02374e-014
rhumerus -77.1865 23.1571 -92.0632
rradius 85.3038
rwrist 38.5929
rhand -41.8619 23.917
rfingers 7.12502
rthumb -14.7621 -5.53728
lclavicle 2.38542e-015 1.02374e-014
lhumerus -74.7769 -23.0356 86.677
lradius 82.6043
lwrist -50.5593
lhand -47.9403 0.195797
lfingers 7.12502
lthumb -20.611 29.1215
rfemur -19.6517 14.1892 14.5884
rtibia 36.7802
rfoot -19.9223 -15.4244
rtoes -14.6432
lfemur -26.8132 -2.86167 -20.0564
ltibia 39.486
lfoot -9.09114 4.34745
ltoes -10.4812
697
root 4.32606 11.7843 8.30241 72.8636 -2.87741 3.42469
lowerback 6.6414 -0.561094 0.0616677
upperback -2.77049 -0.87752 -2.05223
thorax -6.66065 -0.484674 -2.07396
lowerneck -28.7298 -4.87177 -5.87527
upperneck 9.80877 -5.82712 8.31591
head 8.03212 -2.12749 2.91676
rclavicle -1.21259e-014 -5.71506e-015
rhumerus -77.3475 23.0115 -92.0762
rradius 85.2859
rwrist 38.6059
rhand -42.0972 24.3212
rfingers 7.12502
rthumb -14.9888 -5.11635
lclavicle -1.21259e-014 -5.71506e-015
lhumerus -74.9822 -22.7805 86.6119
lradius 82.661
lwrist -50.6319
lhand -48.0482 0.0389339
lfingers 7.12502
lthumb -20.7147 28.9534
rfemur -19.6497 13.942 14.5075
rtibia 36.8216
rfoot -19.4801 -15.0369
rtoes -14.8507
lfemur -26.6464 -2.94763 -20.0221
ltibia 39.4301
lfoot -8.87977 4.60916
ltoes -10.1911
698
root 4.32972 11.7774 8.31364 73.23 -2.98256 3.184
lowerback 6.64566 -0.502209 0.0496058
upperback -2.78243 -0.800853 -2.06845
thorax -6.67294 -0.446811 -2.09372
lowerneck -28.6481 -4.88252 -5.90139
upperneck 9.57839 -5.8308 8.3683
head 7.94434 -2.13081 2.93794
rclavicle 1.88845e-015 9.69075e-016
rhumerus -77.4834 22.8693 -92.073
rradius 85.2641
rwrist 38.621
rhand -42.3193 24.7267
rfingers 7.12502
rthumb -15.2027 -4.69476
lclavicle 1.88845e-015 9.69075e-016
lhumerus -75.1591 -22.5275 86.5407
lradius 82.7019
lwrist -50.7188
lhand -48.1464 -0.112651
lfingers 7.12502
lthumb -20.8091 28.7915
rfemur -19.6503 13.6939 14.4354
rtibia 36.8601
rfoot -19.0509 -14.674
rtoes -14.9807
lfemur -26.4903 -3.04871 -19.9779
ltibia 39.3773
lfoot -8.6568 4.89856
ltoes -10.1694
699
root 4.33323 11.7725 8.32521 73.6032 -3.0617 2.95477
lowerback 6.64278 -0.450574 0.0528543
upperback -2.79179 -0.731862 -2.07692
thorax -6.67875 -0.413174 -2.11306
lowerneck -28.5577 -4.89241 -5.93597
upperneck 9.34832 -5.83083 8.42231
head 7.85562 -2.1328 2.96164
rclavicle -3.18055e-015 -5.41688e-015
rhumerus -77.6018 22.7304 -92.0552
rradius 85.2472
rwrist 38.6505
rhand -42.5046 25.0924
rfingers 7.12502
rthumb -15.3813 -4.3154
lclavicle -3.18055e-015 -5.41688e-015
lhumerus -75.3137 -22.2809 86.4702
lradius 82.7341
lwrist -50.8141
lhand -48.2722 -0.215954
lfingers 7.12502
lthumb -20.93 28.6749
rfemur -19.6448 13.4297 14.3882
rtibia 36.8898
rfoot -18.627 -14.3192
rtoes -15.0017
lfemur -26.348 -3.10498 -19.916
ltibia 39.3266
lfoot -8.399 5.13892
ltoes -10.3208
700
root 4.33637 11.7698 8.33734 73.9807 -3.12397 2.74177
lowerback 6.63637 -0.406645 0.0592932
upperback -2.79773 -0.67249 -2.08034
thorax -6.67919 -0.384257 -2.12767
lowerneck -28.4632 -4.8987 -5.96832
upperneck 9.12461 -5.82579 8.46714
head 7.76782 -2.13331 2.98263
rclavicle 6.36111e-015 4.32357e-015
rhumerus -77.7056 22.6004 -92.0305
rradius 85.2438
rwrist 38.6829
rhand -42.6461 25.3943
rfingers 7.12502
rthumb -15.5175 -4.00301
lclavicle 6.36111e-015 4.32357e-015
lhumerus -75.4546 -22.047 86.4047
lradius 82.7685
lwrist -50.9065
lhand -48.3829 -0.289696
lfingers 7.12502
lthumb -21.0363 28.5893
rfemur -19.6298 13.1531 14.3565
rtibia 36.9099
rfoot -18.195 -13.9732
rtoes -15.163
lfemur -26.2246 -3.09674 -19.85
ltibia 39.2803
lfoot -8.0865 5.31062
ltoes -10.4976
701
root 4.33869 11.7703 8.35109 74.4114 -3.18027 2.54052
lowerback 6.57911 -0.36754 0.0520432
upperback -2.816 -0.620378 -2.0807
thorax -6.6635 -0.358261 -2.13054
lowerneck -28.3583 -4.90117 -5.99651
upperneck 8.90843 -5.81719 8.50637
head 7.68061 -2.13267 3.00166
rclavicle 6.85807e-015 -1.58282e-014
rhumerus -77.7942 22.4764 -92.0035
rradius 85.2495
rwrist 38.726
rhand -42.7301 25.6251
rfingers 7.12502
rthumb -15.5984 -3.76599
lclavicle 6.85807e-015 -1.58282e-014
lhumerus -75.585 -21.8291 86.3435
lradius 82.8085
lwrist -50.9848
lhand -48.4811 -0.345807
lfingers 7.12502
lthumb -21.1306 28.5227
rfemur -19.6622 12.8852 14.3205
rtibia 36.9186
rfoot -17.7601 -13.6187
rtoes -15.2765
lfemur -26.176 -2.9811 -19.7865
ltibia 39.239
lfoot -7.71403 5.36815
ltoes -10.6677
702
root 4.34092 11.773 8.36497 74.8277 -3.23095 2.35222
lowerback 6.53482 -0.334413 0.043531
upperback -2.82746 -0.576422 -2.08124
thorax -6.64836 -0.336193 -2.13178
lowerneck -28.2524 -4.89977 -6.0211
upperneck 8.71101 -5.80503 8.54016
head 7.5992 -2.13048 3.01884
rclavicle 4.72114e-015 -5.01931e-015
rhumerus -77.8623 22.36 -91.9771
rradius 85.257
rwrist 38.7703
rhand -42.7798 25.7913
rfingers 7.12502
rthumb -15.6463 -3.59597
lclavicle 4.72114e-015 -5.01931e-015
lhumerus -75.6956 -21.6227 86.2855
lradius 82.8474
lwrist -51.0431
lhand -48.5509 -0.422472
lfingers 7.12502
lthumb -21.1977 28.4385
rfemur -19.667 12.6378 14.2913
rtibia 36.921
rfoot -17.3419 -13.2697
rtoes -15.4175
lfemur -26.125 -2.84577 -19.7279
ltibia 39.2077
lfoot -7.33384 5.3781
ltoes -10.6217
703
root 4.34329 11.7775 8.37902 75.2355 -3.27596 2.17357
lowerback 6.49097 -0.306621 0.03775
upperback -2.83459 -0.539353 -2.08277
thorax -6.6292 -0.317618 -2.13469
lowerneck -28.1508 -4.89533 -6.04168
upperneck 8.54428 -5.7917 8.57199
head 7.52869 -2.12714 3.03495
rclavicle -2.73329e-015 9.91439e-015
rhumerus -77.907 22.2521 -91.9505
rradius 85.2578
rwrist 38.8119
rhand -42.7997 25.9165
rfingers 7.12502
rthumb -15.6655 -3.46934
lclavicle -2.73329e-015 9.91439e-015
lhumerus -75.7901 -21.4272 86.2327
lradius 82.8813
lwrist -51.08
lhand -48.5971 -0.488917
lfingers 7.12502
lthumb -21.2421 28.3671
rfemur -19.6536 12.4028 14.2678
rtibia 36.9219
rfoot -16.9383 -12.907
rtoes -15.6097
lfemur -26.0736 -2.68982 -19.6732
ltibia 39.1876
lfoot -6.97262 5.32985
ltoes -10.4252
